<svg id="Capa_1" data-name="Capa 1" xmlns="http://www.w3.org/2000/svg" viewBox="0 0 282.81 166.67"><defs><style>.cls-1{fill:#fff;}.cls-2{fill:#dbb556;}.cls-3{fill:#9ba958;}.cls-4{fill:#bf7f5c;}.cls-5{fill:#207fb4;}</style></defs><title>Mesa de trabajo 1</title><g id="expertos_en_piscinas" data-name="expertos en piscinas"><g id="expertos"><path class="cls-1" d="M31.19,96h9.15a.15.15,0,0,1,.15.16v4.2c0,.09,0,.14-.15.14H35.24v5h5.19a.15.15,0,0,1,.15.16v3c0,.1,0,.16-.15.16H35.24v10.75h5.11c.1,0,.15.06.15.14v4.2c0,.1,0,.16-.15.16H31.19c-.1,0-.15-.05-.15-.16V96.16C31.06,96.06,31.11,96,31.19,96Z"/><path class="cls-1" d="M41.89,100.54h3.5a51,51,0,0,1,2.27,6.24h.15a50.85,50.85,0,0,1,2.27-6.24h3.5a.15.15,0,0,1,.15.16q-3.88,11-4.11,11.55.15.31,4.11,11.69l-.15.08h-3.5q-.21,0-2.27-6.24h-.15Q45.6,124,45.39,124h-3.5c-.1,0-.15-.05-.15-.16q4-11.26,4.11-11.55-.23-.55-4.11-11.69Z"/><path class="cls-1" d="M64.84,101.73a2.77,2.77,0,0,0-1.19-.39h-.51a9.06,9.06,0,0,0-4.07,1.49v-1.09q0-.16-.17-.16H55.34q-.17,0-.17.16v28a.16.16,0,0,0,.17.16H58.9c.11,0,.17-.07.17-.16V123q5.34,3.42,7.46-.59,1-1.49,1-9.9T64.84,101.73Zm-1.25,10.65q0,5.55-.47,6.87a1.81,1.81,0,0,1-3.46.06,14.21,14.21,0,0,1-.5-4.58q0-6.47.52-8a1.91,1.91,0,0,1,1.88-1.51,1.6,1.6,0,0,1,1.59,1.15,18.91,18.91,0,0,1,.44,5.3Z"/><path class="cls-1" d="M79.22,113.24q.17,0,.17-.18v-8.6l-.08-.82A5.47,5.47,0,0,0,74,100.17l-1.78.25a4.74,4.74,0,0,0-3.73,4.87v13.58a4.6,4.6,0,0,0,.68,2.72A5.87,5.87,0,0,0,74,124q0-.08.93-.08,4.49-1.19,4.49-4.22v-3.11q0-.14-.17-.16l-3.39.78a.16.16,0,0,0-.17.16v1.74q0,1.09-1.27,1.25h-.85q-1.17,0-1.27-1.25v-4.5Zm-7-2q0-.33,0-.92,0-4.71.43-5.64a1.49,1.49,0,0,1,1.45-.93,1.54,1.54,0,0,1,1.46.95q.47.95.47,4.82,0,.43-.06,1.47v.14l-3.71.7Q72.27,111.54,72.26,111.21Z"/><path class="cls-1" d="M81.23,101.18h3.64q.13,0,.25.23v2h.08q2.92-2.19,4-2.19,2.27,0,2.88,4.22v1.25q0,.27-3.56.94l-.08-.16v-1q-.08-1.25-.68-1.25-1.33,0-2.71,2.89v15.79c0,.1-.06.16-.17.16H81.23c-.11,0-.17-.05-.17-.16V101.34A.16.16,0,0,1,81.23,101.18Z"/><path class="cls-1" d="M94.67,96.45h3.81q.17,0,.17.16v4.46h2.08c.11,0,.17.07.17.16V104c0,.1-.06.16-.17.16H98.65v14.19q0,.63.76.86a3.2,3.2,0,0,0,1.53-.7H101v3.67a5,5,0,0,1-2.8,1.8h-.68q-1.8,0-2.8-3a4.51,4.51,0,0,1-.25-1.72V104.19H92.89c-.11,0-.17-.05-.17-.16v-2.81a.16.16,0,0,1,.17-.16H94.5V96.61A.16.16,0,0,1,94.67,96.45Z"/><path class="cls-1" d="M113.42,103.78Q111.6,100,108.16,100h-.68a6.32,6.32,0,0,0-1.53.23q-4,1.74-4,5v13.55a5.27,5.27,0,0,0,.25,1.45q1.82,3.79,5.25,3.79h.68a6.33,6.33,0,0,0,1.53-.23q4-1.74,4-5V105.23A5.28,5.28,0,0,0,113.42,103.78Zm-3.47,13.94a9.56,9.56,0,0,1-.08,1.13,2,2,0,0,1-1.95,1.45q-1.8,0-2-2.09V105.72q.28-2.09,1.95-2.09,2.12,0,2.12,2.58Z"/><path class="cls-1" d="M121.43,123.94q4.07-1.25,4.07-4.14V116q0-3.23-3.73-5.47-3.39-1.52-3.39-3.91v-1.49q0-1.06,1.19-1.25h1q1.19.2,1.19,1.25v2q0,.14.17.16h3.39a.16.16,0,0,0,.17-.16v-2.74a2.84,2.84,0,0,0-.42-1.49,5.3,5.3,0,0,0-4.49-2.66h-1l-.85.08q-4.07,1.25-4.07,4.14v3.75q0,1.17.17,1.17,0,1.88,4.07,3.91,2.88,1.11,2.88,3.28v2.5q0,1.06-1.19,1.25h-1q-1.19-.2-1.19-1.25v-2.81q0-.16-.17-.16h-3.39q-.17,0-.17.16v3.52a2.9,2.9,0,0,0,.42,1.49,5.3,5.3,0,0,0,4.49,2.66h1Z"/><path class="cls-1" d="M144.5,113.24q.17,0,.17-.18v-8.6l-.08-.82a5.47,5.47,0,0,0-5.34-3.48l-1.78.25a4.74,4.74,0,0,0-3.73,4.87v13.58a4.6,4.6,0,0,0,.68,2.72,5.87,5.87,0,0,0,4.83,2.4q0-.08.93-.08,4.49-1.19,4.49-4.22v-3.11q0-.14-.17-.16l-3.39.78a.16.16,0,0,0-.17.16v1.74q0,1.09-1.27,1.25h-.85q-1.17,0-1.27-1.25v-4.5Zm-7-2q0-.33,0-.92,0-4.71.43-5.64a1.49,1.49,0,0,1,1.45-.93,1.54,1.54,0,0,1,1.46.95q.47.95.47,4.82,0,.43-.06,1.47v.14l-3.71.7Q137.55,111.54,137.54,111.21Z"/><path class="cls-1" d="M154.1,100.26h.51q2.29,0,3.22,4.18v19.41c0,.1-.06.16-.17.16h-3.39c-.11,0-.17-.05-.17-.16V106.15q0-2.17-1.61-2.17Q150,104,150,107.3v16.56c0,.1-.06.16-.17.16H146.3c-.11,0-.17-.05-.17-.16v-23.2a.16.16,0,0,1,.17-.16h3.56c.11,0,.17.07.17.16v1h.08A9.33,9.33,0,0,1,154.1,100.26Z"/><path class="cls-1" d="M176.6,101.73a2.77,2.77,0,0,0-1.19-.39h-.51a9.06,9.06,0,0,0-4.07,1.49v-1.09c0-.1-.06-.16-.17-.16h-3.56c-.11,0-.17.05-.17.16v28a.16.16,0,0,0,.17.16h3.56c.11,0,.17-.07.17-.16V123q5.34,3.42,7.46-.59,1-1.49,1-9.9T176.6,101.73Zm-1.25,10.65q0,5.55-.47,6.87a1.81,1.81,0,0,1-3.46.06,14.22,14.22,0,0,1-.5-4.58q0-6.47.52-8a1.91,1.91,0,0,1,1.88-1.51,1.6,1.6,0,0,1,1.59,1.15,18.9,18.9,0,0,1,.45,5.3Z"/><path class="cls-1" d="M180.71,95.48h3.69c.11,0,.17,0,.17,0v3.15s-.06,0-.17,0h-3.69c-.11,0-.17,0-.17,0V95.5A.38.38,0,0,1,180.71,95.48Zm0,5h3.69q.17,0,.17.16v23.3c0,.1-.06.16-.17.16h-3.69c-.11,0-.17-.05-.17-.16V100.6A.16.16,0,0,1,180.71,100.44Z"/><path class="cls-1" d="M192.6,123.94q4.07-1.25,4.07-4.14V116q0-3.23-3.73-5.47-3.39-1.52-3.39-3.91v-1.49q0-1.06,1.19-1.25h1q1.19.2,1.19,1.25v2c0,.09.06.14.17.16h3.39a.16.16,0,0,0,.17-.16v-2.74a2.84,2.84,0,0,0-.42-1.49,5.3,5.3,0,0,0-4.49-2.66h-1l-.85.08q-4.07,1.25-4.07,4.14v3.75q0,1.17.17,1.17,0,1.88,4.07,3.91,2.88,1.11,2.88,3.28v2.5q0,1.06-1.19,1.25h-1q-1.19-.2-1.19-1.25v-2.81q0-.16-.17-.16H186c-.11,0-.17.05-.17.16v3.52a2.9,2.9,0,0,0,.42,1.49,5.3,5.3,0,0,0,4.49,2.66h1Z"/><path class="cls-1" d="M203.1,100.26a5.75,5.75,0,0,1,5,2.72,3.5,3.5,0,0,1,.42,1.56v2.31q0,.18-.17.18l-3.39-.78c-.11,0-.17-.06-.17-.18v-.94q0-1.49-1.27-1.49h-1q-1.1.27-1.1,1.08v14.82q.28,1.08,1.1,1.07h1q1.27,0,1.27-1.49v-.94c0-.12.07-.18.17-.18l3.39-.78q.17,0,.17.18v2.31q0,2.83-4.15,4.12a8.79,8.79,0,0,0-1.27.16,5.62,5.62,0,0,1-5.17-3,4.93,4.93,0,0,1-.34-1.64v-14.5q0-3.07,3.81-4.36Q202.93,100.26,203.1,100.26Z"/><path class="cls-1" d="M210.35,95.48H214c.11,0,.17,0,.17,0v3.15s-.06,0-.17,0h-3.69c-.11,0-.17,0-.17,0V95.5A.38.38,0,0,1,210.35,95.48Zm0,5H214q.17,0,.17.16v23.3c0,.1-.06.16-.17.16h-3.69c-.11,0-.17-.05-.17-.16V100.6A.16.16,0,0,1,210.35,100.44Z"/><path class="cls-1" d="M223.8,100.26h.51q2.29,0,3.22,4.18v19.41c0,.1-.06.16-.17.16H224c-.11,0-.17-.05-.17-.16V106.15q0-2.17-1.61-2.17-2.46,0-2.46,3.32v16.56c0,.1-.06.16-.17.16H216c-.11,0-.17-.05-.17-.16v-23.2a.16.16,0,0,1,.17-.16h3.56c.11,0,.17.07.17.16v1h.08A9.33,9.33,0,0,1,223.8,100.26Z"/><path class="cls-1" d="M240.46,103a5.4,5.4,0,0,0-4.58-2.74h-1a5.27,5.27,0,0,0-2.12.55,4.15,4.15,0,0,0-2.88,4.1q0,.25,3.31,1.06c.11,0,.17-.05.17-.16v-1.25q0-.94,1.36-1.09h.68q1.53,0,1.53,1v2.85a5.88,5.88,0,0,1-2.29.59q-7.2,2.42-5.51,12.35c0,.05,0,.08.08.08q1.12,3.68,3.14,3.67h.51a9.06,9.06,0,0,0,4.07-1.49l.42,1.29c0,.1.06.16.17.16h3.14c.11,0,.17-.05.17-.16V104.39A4.48,4.48,0,0,0,240.46,103Zm-3.58,10.32q0,4.55-.58,5.49a2,2,0,0,1-1.88.94,1.69,1.69,0,0,1-1.39-.65,2.66,2.66,0,0,1-.52-1.72q0-3.87,1-4.89a8.14,8.14,0,0,1,3.32-1.7Z"/><path class="cls-1" d="M248.8,123.94q4.07-1.25,4.07-4.14V116q0-3.23-3.73-5.47-3.39-1.52-3.39-3.91v-1.49q0-1.06,1.19-1.25h1q1.19.2,1.19,1.25v2c0,.09.06.14.17.16h3.39a.16.16,0,0,0,.17-.16v-2.74a2.84,2.84,0,0,0-.42-1.49,5.3,5.3,0,0,0-4.49-2.66h-1l-.85.08q-4.07,1.25-4.07,4.14v3.75q0,1.17.17,1.17,0,1.88,4.07,3.91,2.88,1.11,2.88,3.28v2.5q0,1.06-1.19,1.25h-1q-1.19-.2-1.19-1.25v-2.81q0-.16-.17-.16h-3.39c-.11,0-.17.05-.17.16v3.52a2.9,2.9,0,0,0,.42,1.49,5.3,5.3,0,0,0,4.49,2.66h1Z"/></g><g id="curva_final" data-name="curva final"><path class="cls-1" d="M208.36,155.75a201.31,201.31,0,0,1-21.53-1.16,163.68,163.68,0,0,1-33.53-7.14c-2.93-1-5.88-2-8.73-3-5-1.77-10.15-3.59-15.33-5a208,208,0,0,0-25.1-5.33,196.73,196.73,0,0,0-48.22-1.23A183.47,183.47,0,0,0,8.75,143.91a1.8,1.8,0,0,1-2.3-.92,1.64,1.64,0,0,1,1-2.17,187.16,187.16,0,0,1,48.13-11.29,200.39,200.39,0,0,1,49.14,1.25,211.59,211.59,0,0,1,25.54,5.43c5.3,1.47,10.52,3.32,15.57,5.1,2.83,1,5.76,2,8.66,3a160,160,0,0,0,32.77,7,197.63,197.63,0,0,0,25.6,1.08,201,201,0,0,0,50.28-7.67c4.09-1.16,8.22-2.47,12.29-3.9a1.8,1.8,0,0,1,2.27,1,1.64,1.64,0,0,1-1,2.14c-4.13,1.45-8.34,2.78-12.5,4a204.71,204.71,0,0,1-51.21,7.81Q210.64,155.75,208.36,155.75Z"/></g></g><g id="MUND_LINE" data-name="MUND LINE"><path class="cls-1" d="M25.81,70.38l-4.06,5.47-3.22.44-4.85-5.91v14.5h-8v-30h5.51l9,11.42L28.5,54.91h5.33v30h-8Z"/><path class="cls-1" d="M40.44,54.91h8V73A5.8,5.8,0,0,0,50,77.28a5.82,5.82,0,0,0,7.85,0A5.8,5.8,0,0,0,59.31,73V54.91h8V73.42A12.22,12.22,0,0,1,65.66,80a10.67,10.67,0,0,1-4.72,4.12,16.6,16.6,0,0,1-7.05,1.41,16.6,16.6,0,0,1-7.05-1.41A10.67,10.67,0,0,1,42.12,80a12.21,12.21,0,0,1-1.67-6.55Z"/><path class="cls-1" d="M82,69.1V84.88h-8v-30h7.45L92.94,71.17V54.91h8v30H93.47Z"/><path class="cls-1" d="M121.42,84.88H108v-30h13.58a14.82,14.82,0,0,1,7.69,1.9,12.17,12.17,0,0,1,4.83,5.25,17.32,17.32,0,0,1,1.63,7.67,17,17,0,0,1-1.81,8A12.76,12.76,0,0,1,128.87,83,14.83,14.83,0,0,1,121.42,84.88Zm-.22-23.67H116V78.58h4.85a5.78,5.78,0,0,0,4.74-2.29q1.83-2.29,1.83-6.57a10.49,10.49,0,0,0-1.65-6.15A5.31,5.31,0,0,0,121.2,61.21Z"/><path class="cls-1" d="M188.06,79h13l.76,6.43h-22V54.84h8.19Z"/><path class="cls-1" d="M214.06,54.84V85.43h-8.19V54.84Z"/><path class="cls-1" d="M229.45,69.33v16.1h-8.19V54.84h7.6l11.79,16.6V54.84h8.19V85.43h-7.65Z"/><path class="cls-1" d="M277.67,79l.76,6.43H256V54.84h20.29l.76,6.43H264.22v5.58h9.4l.76,6.43H264.22V79Z"/></g><g id="Capa_3" data-name="Capa 3"><circle class="cls-1" cx="157.72" cy="69.88" r="15.46"/><path class="cls-2" d="M164.88,73.22a12.25,12.25,0,0,1-7.6-2.68c-6.07-4.67-12.23-1-13.5-.16a13.86,13.86,0,0,0,1.7,6.2,12.32,12.32,0,0,1,3.45-1.68,9.41,9.41,0,0,1,9.41,2.3c4.91,4.44,9.78,1.28,11.09.27a13.86,13.86,0,0,0,2.15-6,15.28,15.28,0,0,1-3.48,1.38A13,13,0,0,1,164.88,73.22Z"/><path class="cls-3" d="M163.82,65.3a9.65,9.65,0,0,1-6.59-2.72,7.77,7.77,0,0,0-7.83-1.94,10.6,10.6,0,0,0-3.52,1.86,13.86,13.86,0,0,0-2,5.9,15.36,15.36,0,0,1,3.6-1.44,12.26,12.26,0,0,1,10.84,2.27c5.93,4.56,11.93,1.18,13.38.23a13.86,13.86,0,0,0-1.67-6.2,12.25,12.25,0,0,1-3.35,1.63A9.78,9.78,0,0,1,163.82,65.3Z"/><path class="cls-4" d="M157.24,78.41a7.77,7.77,0,0,0-7.83-1.94,10.67,10.67,0,0,0-3,1.5,13.93,13.93,0,0,0,20.07,2.79,9.37,9.37,0,0,1-9.2-2.36Z"/><path class="cls-5" d="M157.72,55.93a13.88,13.88,0,0,0-8.78,3.12,9.41,9.41,0,0,1,9.41,2.3c4.58,4.14,9.13,1.67,10.78.5A13.94,13.94,0,0,0,157.72,55.93Z"/></g><g id="Grupo"><path class="cls-1" d="M108.61,26h-6.88l.27-2h9.4V37.9a11.89,11.89,0,0,1-3.73,1.48,18.94,18.94,0,0,1-4.5.58,15.68,15.68,0,0,1-8.05-2,14.18,14.18,0,0,1-5.44-5.65,16.73,16.73,0,0,1-1.93-8.05,16.77,16.77,0,0,1,2.07-8.39,14.66,14.66,0,0,1,5.67-5.69,16,16,0,0,1,8-2,21.75,21.75,0,0,1,4,.45,9.54,9.54,0,0,1,3.46,1.21L110,11.85a20.66,20.66,0,0,0-3-1,16,16,0,0,0-3.51-.31,13.13,13.13,0,0,0-6.23,1.66,12.47,12.47,0,0,0-4.77,4.7,14,14,0,0,0-1.82,7.26,14.56,14.56,0,0,0,1.64,7,11.6,11.6,0,0,0,4.45,4.66,12.43,12.43,0,0,0,6.32,1.62,16,16,0,0,0,5.49-1Z"/><path class="cls-1" d="M119.58,23.78V39.34h-2.79V17.52h1.84l.81,3.46A22.06,22.06,0,0,1,123,18.63a7.8,7.8,0,0,1,3.58-1.1l.76,2.2A8.53,8.53,0,0,0,123.2,21,14.52,14.52,0,0,0,119.58,23.78Z"/><path class="cls-1" d="M145.31,33V17.48h2.79V39.34h-2.29L145.36,36a11.55,11.55,0,0,1-3.73,2.77,10,10,0,0,1-4.36,1.15,6.21,6.21,0,0,1-5-2,7.91,7.91,0,0,1-1.66-5.26V17.52h2.79V32.1q0,5.4,4.23,5.4a8.38,8.38,0,0,0,4-1.28A12.56,12.56,0,0,0,145.31,33Z"/><path class="cls-1" d="M170.05,20.09a12.7,12.7,0,0,1,2.61,8.37,14.52,14.52,0,0,1-1.24,5.89A9.46,9.46,0,0,1,168,38.44a9.69,9.69,0,0,1-5.42,1.48A9.18,9.18,0,0,1,157,37.77V48.7l-2.79.49V17.52h1.84l.58,1.8a10.28,10.28,0,0,1,2.86-1.75,8.48,8.48,0,0,1,3.22-.63A9,9,0,0,1,170.05,20.09ZM168,35a11.19,11.19,0,0,0,1.87-6.55,11.5,11.5,0,0,0-1.75-6.72,6.05,6.05,0,0,0-5.31-2.5,7.24,7.24,0,0,0-3.19.67A9,9,0,0,0,157,21.84v13.4A11,11,0,0,0,159.52,37a7.18,7.18,0,0,0,3.15.63A6.1,6.1,0,0,0,168,35Z"/><path class="cls-1" d="M195.06,34.41a9.74,9.74,0,0,1-3.73,4,10.78,10.78,0,0,1-5.67,1.46,9.31,9.31,0,0,1-5.29-1.48,9.4,9.4,0,0,1-3.4-4.12,14.63,14.63,0,0,1-1.17-6,13.56,13.56,0,0,1,1.3-5.83,9.73,9.73,0,0,1,3.62-4.07,10.13,10.13,0,0,1,5.51-1.48A9.33,9.33,0,0,1,193.71,20q2.65,3.08,2.65,8.52A12.86,12.86,0,0,1,195.06,34.41Zm-3.58.65a10.29,10.29,0,0,0,2-6.48,11.11,11.11,0,0,0-1.89-6.75,6.35,6.35,0,0,0-5.44-2.56,6.65,6.65,0,0,0-5.51,2.52,10.29,10.29,0,0,0-2,6.48A11.1,11.1,0,0,0,180.53,35,6.35,6.35,0,0,0,186,37.59,6.65,6.65,0,0,0,191.48,35.07Z"/></g></svg>