<?xml version="1.0" encoding="utf-8"?>
<!-- Generator: Adobe Illustrator 21.0.0, SVG Export Plug-In . SVG Version: 6.00 Build 0)  -->
<svg version="1.1" id="Capa_1" xmlns="http://www.w3.org/2000/svg" xmlns:xlink="http://www.w3.org/1999/xlink" x="0px" y="0px"
	 viewBox="0 0 200 117.9" style="enable-background:new 0 0 200 117.9;" xml:space="preserve">
<style type="text/css">
	.st0{fill:#2A4255;}
	.st1{fill:#DBB556;}
	.st2{fill:#9BA958;}
	.st3{fill:#BF7F5C;}
	.st4{fill:#207FB4;}
</style>
<g>
	<path class="st0" d="M21.4,67.9h6.5c0.1,0,0.1,0,0.1,0.1v3c0,0.1,0,0.1-0.1,0.1h-3.6v3.5H28c0.1,0,0.1,0,0.1,0.1v2.1
		c0,0.1,0,0.1-0.1,0.1h-3.7v7.6h3.6c0.1,0,0.1,0,0.1,0.1v3c0,0.1,0,0.1-0.1,0.1h-6.5c-0.1,0-0.1,0-0.1-0.1V68
		C21.3,67.9,21.4,67.9,21.4,67.9z"/>
	<path class="st0" d="M29,71.1h2.5c0.2,0.4,0.8,1.9,1.6,4.4h0.1c0.8-2.5,1.4-4,1.6-4.4h2.5c0.1,0,0.1,0,0.1,0.1
		c-1.8,5.2-2.8,7.9-2.9,8.2c0.1,0.1,1,2.9,2.9,8.3l-0.1,0.1h-2.5c-0.1,0-0.6-1.5-1.6-4.4h-0.1c-1,2.9-1.5,4.4-1.6,4.4H29
		c-0.1,0-0.1,0-0.1-0.1c1.9-5.3,2.8-8,2.9-8.2c-0.1-0.3-1.1-3-2.9-8.3L29,71.1z"/>
	<path class="st0" d="M45.3,71.9c-0.4-0.2-0.6-0.3-0.8-0.3h-0.4c-0.7,0-1.7,0.4-2.9,1.1v-0.8c0-0.1,0-0.1-0.1-0.1h-2.5
		c-0.1,0-0.1,0-0.1,0.1v19.8c0,0.1,0,0.1,0.1,0.1h2.5c0.1,0,0.1,0,0.1-0.1V87c2.5,1.6,4.3,1.5,5.3-0.4c0.5-0.7,0.7-3,0.7-7
		C47.2,75.6,46.6,73,45.3,71.9z M44.4,79.5c0,2.6-0.1,4.2-0.3,4.9c-0.2,0.6-0.6,0.9-1.2,0.9c-0.6,0-1-0.3-1.2-0.9
		c-0.2-0.6-0.4-1.7-0.4-3.2c0-3.1,0.1-4.9,0.4-5.7c0.2-0.7,0.7-1.1,1.3-1.1c0.5,0,0.9,0.3,1.1,0.8c0.2,0.5,0.3,1.8,0.3,3.8V79.5z"/>
	<g>
		<path class="st0" d="M55.5,80.1c0.1,0,0.1,0,0.1-0.1v-6.1l-0.1-0.6c-0.8-1.6-2-2.5-3.8-2.5L50.5,71c-1.8,0.6-2.6,1.7-2.6,3.4v9.6
			c0,0.8,0.2,1.5,0.5,1.9c0.9,1.1,2,1.7,3.4,1.7c0,0,0.2-0.1,0.7-0.1c2.1-0.6,3.2-1.6,3.2-3v-2.2c0-0.1,0-0.1-0.1-0.1l-2.4,0.6
			c-0.1,0-0.1,0-0.1,0.1v1.2c0,0.5-0.3,0.8-0.9,0.9h-0.6c-0.6,0-0.9-0.3-0.9-0.9v-3.2L55.5,80.1z M50.5,78.6c0-0.2,0-0.4,0-0.7
			c0-2.2,0.1-3.6,0.3-4c0.2-0.4,0.5-0.7,1-0.7c0.5,0,0.8,0.2,1,0.7c0.2,0.4,0.3,1.6,0.3,3.4c0,0.2,0,0.5,0,1c0,0,0,0.1,0,0.1
			l-2.6,0.5C50.5,78.9,50.5,78.8,50.5,78.6z"/>
	</g>
	<path class="st0" d="M56.9,71.5h2.6c0.1,0,0.1,0.1,0.2,0.2v1.4h0.1c1.4-1,2.3-1.6,2.8-1.6c1.1,0,1.8,1,2,3v0.9
		c0,0.1-0.8,0.4-2.5,0.7L62,76v-0.7c0-0.6-0.2-0.9-0.5-0.9c-0.6,0-1.3,0.7-1.9,2v11.2c0,0.1,0,0.1-0.1,0.1h-2.6
		c-0.1,0-0.1,0-0.1-0.1V71.7C56.8,71.6,56.8,71.5,56.9,71.5z"/>
	<path class="st0" d="M66.4,68.2h2.7c0.1,0,0.1,0,0.1,0.1v3.2h1.5c0.1,0,0.1,0,0.1,0.1v2c0,0.1,0,0.1-0.1,0.1h-1.5v10.1
		c0,0.3,0.2,0.5,0.5,0.6c0.2,0,0.6-0.2,1.1-0.5h0.1v2.6c-0.7,0.8-1.4,1.2-2,1.3h-0.5c-0.9,0-1.5-0.7-2-2.2c-0.1-0.3-0.2-0.7-0.2-1.2
		V73.7h-1.1c-0.1,0-0.1,0-0.1-0.1v-2c0-0.1,0-0.1,0.1-0.1h1.1v-3.2C66.3,68.2,66.3,68.2,66.4,68.2z"/>
	<g>
		<path class="st0" d="M79.7,73.4c-0.9-1.8-2.1-2.7-3.7-2.7h-0.5c-0.3,0-0.7,0.1-1.1,0.2c-1.9,0.8-2.8,2-2.8,3.5V84
			c0,0.3,0.1,0.6,0.2,1c0.9,1.8,2.1,2.7,3.7,2.7H76c0.3,0,0.7-0.1,1.1-0.2c1.9-0.8,2.8-2,2.8-3.5v-9.6
			C79.9,74.1,79.8,73.8,79.7,73.4z M77.2,83.3c0,0.2,0,0.5-0.1,0.8c-0.3,0.7-0.8,1-1.4,1c-0.9,0-1.3-0.5-1.4-1.5v-8.8
			c0.1-1,0.6-1.5,1.4-1.5c1,0,1.5,0.6,1.5,1.8V83.3z"/>
	</g>
	<path class="st0" d="M85.4,87.7c1.9-0.6,2.9-1.6,2.9-2.9v-2.7c0-1.5-0.9-2.8-2.6-3.9c-1.6-0.7-2.4-1.6-2.4-2.8v-1.1
		c0-0.5,0.3-0.8,0.8-0.9h0.7c0.6,0.1,0.8,0.4,0.8,0.9v1.4c0,0.1,0,0.1,0.1,0.1h2.4c0.1,0,0.1,0,0.1-0.1v-1.9c0-0.4-0.1-0.7-0.3-1.1
		c-0.9-1.3-1.9-1.9-3.2-1.9H84L83.4,71c-1.9,0.6-2.9,1.6-2.9,2.9v2.7c0,0.6,0,0.8,0.1,0.8c0,0.9,1,1.8,2.9,2.8c1.4,0.5,2,1.3,2,2.3
		v1.8c0,0.5-0.3,0.8-0.8,0.9H84c-0.6-0.1-0.8-0.4-0.8-0.9v-2c0-0.1,0-0.1-0.1-0.1h-2.4c-0.1,0-0.1,0-0.1,0.1v2.5
		c0,0.4,0.1,0.7,0.3,1.1c0.9,1.3,1.9,1.9,3.2,1.9h0.7L85.4,87.7z"/>
	<g>
		<path class="st0" d="M101.7,80.1c0.1,0,0.1,0,0.1-0.1v-6.1l-0.1-0.6c-0.8-1.6-2-2.5-3.8-2.5L96.7,71c-1.8,0.6-2.6,1.7-2.6,3.4v9.6
			c0,0.8,0.2,1.5,0.5,1.9c0.9,1.1,2,1.7,3.4,1.7c0,0,0.2-0.1,0.7-0.1c2.1-0.6,3.2-1.6,3.2-3v-2.2c0-0.1,0-0.1-0.1-0.1l-2.4,0.6
			c-0.1,0-0.1,0-0.1,0.1v1.2c0,0.5-0.3,0.8-0.9,0.9h-0.6c-0.6,0-0.9-0.3-0.9-0.9v-3.2L101.7,80.1z M96.8,78.6c0-0.2,0-0.4,0-0.7
			c0-2.2,0.1-3.6,0.3-4c0.2-0.4,0.5-0.7,1-0.7c0.5,0,0.8,0.2,1,0.7c0.2,0.4,0.3,1.6,0.3,3.4c0,0.2,0,0.5,0,1c0,0,0,0.1,0,0.1
			l-2.6,0.5C96.8,78.9,96.8,78.8,96.8,78.6z"/>
	</g>
	<path class="st0" d="M108.5,70.9h0.4c1.1,0,1.8,1,2.3,3v13.7c0,0.1,0,0.1-0.1,0.1h-2.4c-0.1,0-0.1,0-0.1-0.1V75.1
		c0-1-0.4-1.5-1.1-1.5c-1.2,0-1.7,0.8-1.7,2.4v11.7c0,0.1,0,0.1-0.1,0.1H103c-0.1,0-0.1,0-0.1-0.1V71.2c0-0.1,0.1-0.1,0.1-0.1h2.5
		c0.1,0,0.1,0,0.1,0.1v0.7h0.1C106.9,71.2,107.8,70.9,108.5,70.9z"/>
	<g>
		<path class="st0" d="M124.4,71.9c-0.4-0.2-0.6-0.3-0.8-0.3h-0.4c-0.7,0-1.7,0.4-2.9,1.1v-0.8c0-0.1,0-0.1-0.1-0.1h-2.5
			c-0.1,0-0.1,0-0.1,0.1v19.8c0,0.1,0.1,0.1,0.1,0.1h2.5c0.1,0,0.1,0,0.1-0.1V87c2.5,1.6,4.3,1.5,5.3-0.4c0.5-0.7,0.7-3,0.7-7
			C126.3,75.6,125.7,73,124.4,71.9z M123.5,79.5c0,2.6-0.1,4.2-0.3,4.9c-0.2,0.6-0.6,0.9-1.2,0.9c-0.6,0-1-0.3-1.2-0.9
			c-0.2-0.6-0.4-1.7-0.4-3.2c0-3.1,0.1-4.9,0.4-5.7c0.2-0.7,0.7-1.1,1.3-1.1c0.5,0,0.9,0.3,1.1,0.8c0.2,0.5,0.3,1.8,0.3,3.8V79.5z"
			/>
	</g>
	<path class="st0" d="M127.3,67.5h2.6c0.1,0,0.1,0,0.1,0v2.2c0,0,0,0-0.1,0h-2.6c-0.1,0-0.1,0-0.1,0v-2.2
		C127.2,67.5,127.3,67.5,127.3,67.5z M127.3,71h2.6c0.1,0,0.1,0,0.1,0.1v16.5c0,0.1,0,0.1-0.1,0.1h-2.6c-0.1,0-0.1,0-0.1-0.1V71.1
		C127.2,71.1,127.3,71,127.3,71z"/>
	<path class="st0" d="M135.8,87.7c1.9-0.6,2.9-1.6,2.9-2.9v-2.7c0-1.5-0.9-2.8-2.6-3.9c-1.6-0.7-2.4-1.6-2.4-2.8v-1.1
		c0-0.5,0.3-0.8,0.8-0.9h0.7c0.6,0.1,0.8,0.4,0.8,0.9v1.4c0,0.1,0,0.1,0.1,0.1h2.4c0.1,0,0.1,0,0.1-0.1v-1.9c0-0.4-0.1-0.7-0.3-1.1
		c-0.9-1.3-1.9-1.9-3.2-1.9h-0.7l-0.6,0.1c-1.9,0.6-2.9,1.6-2.9,2.9v2.7c0,0.6,0,0.8,0.1,0.8c0,0.9,1,1.8,2.9,2.8
		c1.4,0.5,2,1.3,2,2.3v1.8c0,0.5-0.3,0.8-0.8,0.9h-0.7c-0.6-0.1-0.8-0.4-0.8-0.9v-2c0-0.1,0-0.1-0.1-0.1h-2.4c-0.1,0-0.1,0-0.1,0.1
		v2.5c0,0.4,0.1,0.7,0.3,1.1c0.9,1.3,1.9,1.9,3.2,1.9h0.7L135.8,87.7z"/>
	<path class="st0" d="M143.2,70.9c1.5,0,2.7,0.6,3.5,1.9c0.2,0.4,0.3,0.8,0.3,1.1v1.6c0,0.1,0,0.1-0.1,0.1l-2.4-0.6
		c-0.1,0-0.1,0-0.1-0.1v-0.7c0-0.7-0.3-1.1-0.9-1.1h-0.7c-0.5,0.1-0.8,0.4-0.8,0.8v10.5c0.1,0.5,0.4,0.8,0.8,0.8h0.7
		c0.6,0,0.9-0.4,0.9-1.1v-0.7c0-0.1,0.1-0.1,0.1-0.1l2.4-0.6c0.1,0,0.1,0.1,0.1,0.1v1.6c0,1.3-1,2.3-2.9,2.9c-0.5,0-0.8,0.1-0.9,0.1
		c-1.6,0-2.8-0.7-3.7-2.1c-0.2-0.4-0.2-0.8-0.2-1.2V74.2c0-1.4,0.9-2.5,2.7-3.1C142.7,70.9,143.1,70.9,143.2,70.9z"/>
	<path class="st0" d="M148.3,67.5h2.6c0.1,0,0.1,0,0.1,0v2.2c0,0,0,0-0.1,0h-2.6c-0.1,0-0.1,0-0.1,0v-2.2
		C148.2,67.5,148.3,67.5,148.3,67.5z M148.3,71h2.6c0.1,0,0.1,0,0.1,0.1v16.5c0,0.1,0,0.1-0.1,0.1h-2.6c-0.1,0-0.1,0-0.1-0.1V71.1
		C148.2,71.1,148.3,71,148.3,71z"/>
	<path class="st0" d="M157.9,70.9h0.4c1.1,0,1.8,1,2.3,3v13.7c0,0.1,0,0.1-0.1,0.1H158c-0.1,0-0.1,0-0.1-0.1V75.1
		c0-1-0.4-1.5-1.1-1.5c-1.2,0-1.7,0.8-1.7,2.4v11.7c0,0.1,0,0.1-0.1,0.1h-2.5c-0.1,0-0.1,0-0.1-0.1V71.2c0-0.1,0.1-0.1,0.1-0.1h2.5
		c0.1,0,0.1,0,0.1,0.1v0.7h0.1C156.3,71.2,157.2,70.9,157.9,70.9z"/>
	<g>
		<path class="st0" d="M169.7,72.8c-0.9-1.3-2-1.9-3.2-1.9h-0.7c-0.4,0-0.9,0.1-1.5,0.4c-1.4,0.6-2,1.5-2,2.9c0,0.1,0.8,0.4,2.3,0.7
			c0.1,0,0.1,0,0.1-0.1v-0.9c0-0.4,0.3-0.7,1-0.8h0.5c0.7,0,1.1,0.2,1.1,0.7v2c-0.6,0.3-1.2,0.4-1.6,0.4c-3.4,1.1-4.7,4.1-3.9,8.7
			c0,0,0,0.1,0.1,0.1c0.5,1.7,1.3,2.6,2.2,2.6h0.4c0.7,0,1.7-0.4,2.9-1.1l0.3,0.9c0,0.1,0,0.1,0.1,0.1h2.2c0.1,0,0.1,0,0.1-0.1V73.8
			C169.9,73.6,169.8,73.2,169.7,72.8z M167.1,80.1c0,2.2-0.1,3.4-0.4,3.9c-0.3,0.4-0.7,0.7-1.3,0.7c-0.4,0-0.7-0.2-1-0.5
			c-0.2-0.3-0.4-0.7-0.4-1.2c0-1.8,0.2-3,0.7-3.5c0.5-0.5,1.3-0.9,2.3-1.2V80.1z"/>
	</g>
	<path class="st0" d="M175.6,87.7c1.9-0.6,2.9-1.6,2.9-2.9v-2.7c0-1.5-0.9-2.8-2.6-3.9c-1.6-0.7-2.4-1.6-2.4-2.8v-1.1
		c0-0.5,0.3-0.8,0.8-0.9h0.7c0.6,0.1,0.8,0.4,0.8,0.9v1.4c0,0.1,0,0.1,0.1,0.1h2.4c0.1,0,0.1,0,0.1-0.1v-1.9c0-0.4-0.1-0.7-0.3-1.1
		c-0.9-1.3-1.9-1.9-3.2-1.9h-0.7l-0.6,0.1c-1.9,0.6-2.9,1.6-2.9,2.9v2.7c0,0.6,0,0.8,0.1,0.8c0,0.9,1,1.8,2.9,2.8
		c1.4,0.5,2,1.3,2,2.3v1.8c0,0.5-0.3,0.8-0.8,0.9h-0.7c-0.6-0.1-0.8-0.4-0.8-0.9v-2c0-0.1,0-0.1-0.1-0.1h-2.4c-0.1,0-0.1,0-0.1,0.1
		v2.5c0,0.4,0.1,0.7,0.3,1.1c0.9,1.3,1.9,1.9,3.2,1.9h0.7L175.6,87.7z"/>
	<g>
		<path class="st0" d="M146.9,110.2c-5.1,0-10.2-0.3-15.3-0.8c-8.3-0.9-16.2-2.6-23.7-5.1c-2.1-0.7-4.2-1.4-6.2-2.1
			c-3.5-1.3-7.2-2.5-10.9-3.6C85,97,79.1,95.7,73.1,94.8c-11.4-1.7-22.9-2-34.2-0.9c-11.5,1.1-22.8,3.8-33.4,7.8
			c-0.6,0.2-1.4,0-1.6-0.7c-0.3-0.6,0.1-1.3,0.7-1.5c10.9-4.1,22.3-6.8,34.1-8c11.4-1.1,23.1-0.8,34.8,0.9
			c6.1,0.9,12.1,2.2,18.1,3.8c3.8,1,7.5,2.4,11,3.6c2,0.7,4.1,1.4,6.1,2.1c7.3,2.4,15.1,4.1,23.2,4.9c6,0.6,12.1,0.9,18.1,0.8
			c11.9-0.3,23.9-2.1,35.6-5.4c2.9-0.8,5.8-1.8,8.7-2.8c0.6-0.2,1.4,0.1,1.6,0.7c0.2,0.6-0.1,1.3-0.7,1.5c-2.9,1-5.9,2-8.9,2.8
			c-11.9,3.4-24.1,5.3-36.3,5.5C149.1,110.2,148,110.2,146.9,110.2z"/>
	</g>
	<g>
		<g>
			<path class="st0" d="M76.3,18.3h-4.9l0.2-1.4h6.7v9.9c-0.6,0.4-1.5,0.8-2.6,1.1c-1.1,0.3-2.2,0.4-3.2,0.4c-2.1,0-4-0.5-5.7-1.4
				c-1.7-1-2.9-2.3-3.9-4c-0.9-1.7-1.4-3.6-1.4-5.7c0-2.2,0.5-4.2,1.5-5.9c1-1.7,2.3-3.1,4-4c1.7-1,3.6-1.4,5.6-1.4
				c0.8,0,1.7,0.1,2.8,0.3c1.1,0.2,1.9,0.5,2.5,0.9l-0.6,1.5c-0.8-0.3-1.5-0.6-2.1-0.7c-0.6-0.1-1.5-0.2-2.5-0.2
				c-1.6,0-3,0.4-4.4,1.2c-1.4,0.8-2.5,1.9-3.4,3.3C64,13.3,63.6,15,63.6,17c0,1.9,0.4,3.6,1.2,5c0.8,1.4,1.8,2.5,3.2,3.3
				c1.3,0.8,2.8,1.1,4.5,1.1c1.3,0,2.5-0.2,3.9-0.7V18.3z"/>
		</g>
		<g>
			<path class="st0" d="M84,16.7v11h-2V12.3h1.3l0.6,2.5c0.7-0.6,1.6-1.2,2.5-1.7c1-0.5,1.8-0.8,2.5-0.8l0.5,1.6
				c-0.9,0-1.9,0.3-2.9,0.9C85.6,15.3,84.7,16,84,16.7z"/>
		</g>
		<g>
			<path class="st0" d="M102.3,23.3v-11h2v15.5h-1.6l-0.3-2.4c-0.7,0.8-1.5,1.4-2.6,2c-1.1,0.5-2.1,0.8-3.1,0.8
				c-1.6,0-2.8-0.5-3.6-1.4c-0.8-0.9-1.2-2.2-1.2-3.7V12.3h2v10.3c0,2.5,1,3.8,3,3.8c0.8,0,1.7-0.3,2.8-0.9
				C100.7,24.9,101.6,24.2,102.3,23.3z"/>
		</g>
		<g>
			<path class="st0" d="M119.8,14.1c1.2,1.5,1.8,3.5,1.8,5.9c0,1.6-0.3,2.9-0.9,4.2c-0.6,1.2-1.4,2.2-2.5,2.9
				c-1.1,0.7-2.4,1.1-3.8,1.1c-1.3,0-2.6-0.5-3.9-1.5v7.7l-2,0.4V12.3h1.3l0.4,1.3c0.6-0.5,1.3-0.9,2-1.2c0.7-0.3,1.5-0.4,2.3-0.4
				C116.8,11.9,118.6,12.6,119.8,14.1z M118.3,24.7c0.9-1.2,1.3-2.7,1.3-4.6c0-2-0.4-3.6-1.2-4.8c-0.8-1.2-2.1-1.8-3.8-1.8
				c-0.8,0-1.6,0.2-2.3,0.5c-0.7,0.3-1.3,0.8-1.8,1.3v9.5c0.6,0.5,1.2,0.9,1.8,1.2c0.6,0.3,1.4,0.4,2.2,0.4
				C116.2,26.5,117.4,25.9,118.3,24.7z"/>
		</g>
		<g>
			<path class="st0" d="M137.5,24.2c-0.6,1.2-1.5,2.2-2.6,2.9c-1.1,0.7-2.5,1-4,1c-1.4,0-2.7-0.4-3.7-1.1c-1.1-0.7-1.9-1.7-2.4-2.9
				c-0.6-1.2-0.8-2.7-0.8-4.3c0-1.5,0.3-2.9,0.9-4.1c0.6-1.2,1.4-2.2,2.6-2.9c1.1-0.7,2.4-1.1,3.9-1.1c2.3,0,4,0.7,5.3,2.2
				c1.3,1.5,1.9,3.5,1.9,6C138.4,21.6,138.1,23,137.5,24.2z M135,24.7c0.9-1.2,1.4-2.7,1.4-4.6c0-2-0.4-3.6-1.3-4.8
				c-0.9-1.2-2.2-1.8-3.9-1.8c-1.7,0-3,0.6-3.9,1.8c-0.9,1.2-1.4,2.7-1.4,4.6c0,2,0.4,3.6,1.3,4.8c0.9,1.2,2.2,1.8,3.9,1.8
				C132.7,26.5,134,25.9,135,24.7z"/>
		</g>
	</g>
	<g>
		<g>
			<path class="st0" d="M17.6,49.7l-2.9,3.9l-2.3,0.3L9,49.7V60H3.4V38.8h3.9l6.4,8.1l5.9-8.1h3.8V60h-5.7V49.7z"/>
		</g>
		<g>
			<path class="st0" d="M28,38.8h5.7v12.8c0,1.3,0.4,2.3,1.1,3c0.7,0.7,1.6,1.1,2.8,1.1c1.1,0,2.1-0.4,2.8-1.1
				c0.7-0.7,1.1-1.7,1.1-3V38.8H47v13.1c0,1.8-0.4,3.4-1.2,4.6c-0.8,1.3-1.9,2.3-3.3,2.9c-1.4,0.7-3.1,1-5,1c-1.9,0-3.6-0.3-5-1
				c-1.4-0.7-2.5-1.6-3.3-2.9c-0.8-1.3-1.2-2.8-1.2-4.6V38.8z"/>
		</g>
		<g>
			<path class="st0" d="M57.4,48.8V60h-5.7V38.8H57l8.2,11.5V38.8h5.7V60h-5.3L57.4,48.8z"/>
		</g>
		<g>
			<path class="st0" d="M85.3,60h-9.5V38.8h9.6c2.1,0,3.9,0.4,5.4,1.3c1.5,0.9,2.6,2.1,3.4,3.7c0.8,1.6,1.2,3.4,1.2,5.4
				c0,2.2-0.4,4.1-1.3,5.7c-0.9,1.6-2.1,2.9-3.6,3.7C89.1,59.6,87.3,60,85.3,60z M85.2,43.2h-3.7v12.3H85c1.4,0,2.5-0.5,3.4-1.6
				c0.9-1.1,1.3-2.6,1.3-4.7c0-1.8-0.4-3.2-1.2-4.4C87.7,43.8,86.6,43.2,85.2,43.2z"/>
		</g>
	</g>
	<g>
		<g>
			<path class="st0" d="M132.5,55.8h9.2l0.5,4.6h-15.5V38.7h5.8V55.8z"/>
		</g>
		<g>
			<path class="st0" d="M151,38.7v21.7h-5.8V38.7H151z"/>
		</g>
		<g>
			<path class="st0" d="M161.9,49v11.4h-5.8V38.7h5.4l8.3,11.8V38.7h5.8v21.7h-5.4L161.9,49z"/>
		</g>
		<g>
			<path class="st0" d="M196,55.8l0.5,4.6h-15.9V38.7h14.4l0.5,4.6h-9.1v4h6.7l0.5,4.6h-7.2v4H196z"/>
		</g>
	</g>
	<g>
		<path class="st1" d="M116.8,52.6c-1.9,0-4.2-0.5-6.5-2.3c-5.2-4-10.4-0.9-11.5-0.1c0.1,1.9,0.6,3.7,1.4,5.3c0.6-0.4,1.6-1,2.9-1.4
			c2-0.6,5-0.7,8,2c4.2,3.8,8.3,1.1,9.4,0.2c1-1.5,1.6-3.2,1.8-5.1c-0.7,0.4-1.7,0.9-3,1.2C118.8,52.4,117.9,52.6,116.8,52.6z"/>
		<path class="st2" d="M115.9,45.8c-1.7,0-3.6-0.5-5.6-2.3c-2-1.8-4.2-2.4-6.7-1.6c-1.6,0.5-2.7,1.3-3,1.6c-0.9,1.5-1.5,3.2-1.7,5
			c0.7-0.4,1.8-0.9,3.1-1.2c2.3-0.6,5.8-0.7,9.2,1.9c5,3.9,10.1,1,11.4,0.2c-0.1-1.9-0.6-3.7-1.4-5.3c-0.6,0.4-1.6,1-2.8,1.4
			C117.6,45.7,116.8,45.8,115.9,45.8z"/>
		<path class="st3" d="M110.3,57c-2-1.8-4.2-2.4-6.7-1.6c-1.2,0.3-2.1,0.9-2.6,1.3c2.2,3,5.7,5,9.6,5c2.8,0,5.4-1,7.4-2.6
			c-0.7,0.2-1.4,0.3-2.2,0.3C114.3,59.3,112.3,58.7,110.3,57z"/>
		<path class="st4" d="M110.8,37.9c-2.8,0-5.4,1-7.5,2.7c2-0.6,5-0.7,8,2c3.9,3.5,7.8,1.4,9.2,0.4C118.3,39.9,114.7,37.9,110.8,37.9
			z"/>
	</g>
</g>
</svg>
